<?xml version="1.0" encoding="UTF-8"?>
<!-- Generator: Adobe Illustrator 16.0.0, SVG Export Plug-In . SVG Version: 6.00 Build 0)  -->
<!DOCTYPE svg PUBLIC "-//W3C//DTD SVG 1.1//EN" "http://www.w3.org/Graphics/SVG/1.1/DTD/svg11.dtd">
<svg version="1.1" id="Layer_1" xmlns="http://www.w3.org/2000/svg" xmlns:xlink="http://www.w3.org/1999/xlink" x="0px" y="0px" width="512px" height="512px" viewBox="0 0 512 512" enable-background="new 0 0 512 512" xml:space="preserve">
<g>
	<g id="_x23_1e1e1cff">
		<path d="M249.762,12.998c3.52,2.646,6.765,5.636,9.944,8.676c11.701,11.455,21.73,24.812,28.33,39.854    c4.646,10.571,7.383,22.026,7.564,33.592c6.346-1.546,10.205-7.692,12.02-13.566c1.791-5.71,2.197-11.733,2.209-17.681    c8.33,9.771,14.938,21.39,17.426,34.087c1.918,9.708,0.238,20.202-5.346,28.46c-5.27,8.003-13.238,13.783-21.598,18.228    c-9.865,5.126-20.504,8.604-31.279,11.239c10.311-10.277,16.174-25.526,13.186-40.035c-3.082-15.682-13.963-28.427-25.765-38.575    c-5.816,5.959-10.922,12.597-15.393,19.618c-4.557,7.322-8.365,15.227-10.277,23.673c-1.514,6.778-1.629,13.984,0.494,20.647    c1.702,5.55,4.991,10.471,8.948,14.666c-10.892-3.267-21.458-8.39-29.887-16.13c-5.858-5.397-10.309-12.717-10.9-20.79    c-0.511-5.841,0.869-11.699,3.188-17.035c6.996-15.743,17.071-29.837,27.372-43.558c5.866-8.021,12.004-15.973,16.231-25.025    C249.178,27.038,250.817,19.955,249.762,12.998z"/>
	</g>
	<path d="M318.016,163.015h-3.983c-5.111,10.069-29.141,17.694-58.033,17.694c-28.891,0-52.92-7.625-58.032-17.694h-3.984   c-5.523,0-10,4.478-10,10v315.986c0,5.522,4.477,10,10,10h124.032c5.523,0,10-4.478,10-10V173.015   C328.016,167.493,323.539,163.015,318.016,163.015z"/>
</g>
</svg>